<svg viewBox="0 0 754.66 72" xmlns="http://www.w3.org/2000/svg" xmlns:xlink="http://www.w3.org/1999/xlink" overflow="hidden"><defs></defs><g id="NEW_MS-logotype"><g><g><path d="M355.83 14.4 369.42 14.4C374.44 14.4 378.29 15.56 380.96 17.86 383.63 20.17 384.97 23.5 384.97 27.86 384.97 30.59 384.28 33.05 382.91 35.24 381.53 37.43 379.59 39.13 377.08 40.33 375.82 40.93 374.46 41.38 373.01 41.69 371.56 41.99 370.03 42.14 368.4 42.14L363.34 42.14 363.34 57.6 355.84 57.6 355.84 14.4ZM363.33 35.91 367.85 35.91C370.76 35.91 373.03 35.25 374.64 33.94 376.26 32.62 377.06 30.68 377.06 28.11 377.06 25.7 376.3 23.85 374.79 22.57 373.28 21.29 371.05 20.64 368.12 20.64L363.33 20.64 363.33 35.91Z" fill="#737373"/><path d="M385.83 42.57C385.83 37.45 387.28 33.39 390.17 30.4 393.06 27.41 397.08 25.91 402.22 25.91 407.06 25.91 410.84 27.35 413.56 30.23 416.28 33.11 417.64 37 417.64 41.9 417.64 46.8 416.19 50.92 413.3 53.89 410.41 56.86 406.47 58.35 401.49 58.35 396.51 58.35 392.88 56.94 390.06 54.12 387.24 51.3 385.83 47.45 385.83 42.57ZM393.42 42.33C393.42 45.56 394.15 48.03 395.62 49.74 397.09 51.45 399.19 52.3 401.92 52.3 404.65 52.3 406.59 51.45 407.97 49.74 409.36 48.03 410.05 45.5 410.05 42.15 410.05 38.8 409.33 36.3 407.9 34.6 406.47 32.9 404.45 32.05 401.86 32.05 399.27 32.05 397.11 32.94 395.64 34.72 394.16 36.5 393.43 39.03 393.43 42.33Z" fill="#737373"/><path d="M457.95 26.63 464.94 26.63 455.9 57.6 448.16 57.6 442.04 35.16 441.92 35.16 435.5 57.6 427.85 57.6 418.84 26.63 426.4 26.63 432.15 50.37 432.33 50.37 439.11 26.63 446.07 26.63 452.19 50.46 452.37 50.46 457.94 26.63Z" fill="#737373"/><path d="M492.05 49.8 492.05 55.8C490.84 56.56 489.27 57.18 487.32 57.65 485.37 58.12 483.29 58.36 481.08 58.36 476.36 58.36 472.69 56.96 470.07 54.17 467.45 51.38 466.14 47.49 466.14 42.51 466.14 37.53 467.54 33.76 470.34 30.66 473.14 27.56 476.69 26.01 480.99 26.01 485.29 26.01 488.6 27.32 490.98 29.94 493.36 32.56 494.55 36.18 494.55 40.8L494.55 44.33 473.34 44.33C473.66 47.44 474.66 49.62 476.34 50.85 478.02 52.08 480.18 52.7 482.83 52.7 484.58 52.7 486.24 52.43 487.83 51.9 489.42 51.37 490.82 50.67 492.05 49.81ZM487.38 38.98C487.38 36.57 486.82 34.73 485.71 33.47 484.6 32.2 483.02 31.57 481 31.57 479.25 31.57 477.69 32.2 476.3 33.45 474.91 34.7 473.99 36.55 473.53 38.98L487.39 38.98Z" fill="#737373"/><path d="M514.64 26.12C515.22 26.12 515.74 26.16 516.21 26.24 516.67 26.32 517.06 26.42 517.38 26.54L517.38 33.92C517 33.64 516.44 33.37 515.71 33.12 514.98 32.87 514.09 32.74 513.04 32.74 511.25 32.74 509.74 33.49 508.51 35 507.27 36.51 506.66 38.83 506.66 41.96L506.66 57.6 499.37 57.6 499.37 26.63 506.66 26.63 506.66 31.51 506.78 31.51C507.44 29.82 508.45 28.5 509.79 27.55 511.14 26.6 512.75 26.12 514.64 26.12Z" fill="#737373"/><path d="M533.62 14.4 547.21 14.4C552.23 14.4 556.08 15.56 558.75 17.86 561.42 20.17 562.76 23.5 562.76 27.86 562.76 30.59 562.07 33.05 560.7 35.24 559.32 37.43 557.38 39.13 554.87 40.33 553.61 40.93 552.25 41.38 550.8 41.69 549.35 41.99 547.82 42.14 546.19 42.14L541.13 42.14 541.13 57.6 533.63 57.6 533.63 14.4ZM541.12 35.91 545.64 35.91C548.55 35.91 550.82 35.25 552.43 33.94 554.05 32.62 554.85 30.68 554.85 28.11 554.85 25.7 554.09 23.85 552.58 22.57 551.07 21.29 548.84 20.64 545.91 20.64L541.12 20.64 541.12 35.91Z" fill="#737373"/><path d="M574.24 11.93 574.24 57.6 566.95 57.6 566.95 11.93 574.24 11.93Z" fill="#737373"/><path d="M605.69 38.2C605.69 43.3 605.69 47.32 605.7 50.27 605.7 53.21 605.87 55.66 606.17 57.61L598.91 57.61 598.55 54.3 598.43 54.3C597.51 55.55 596.3 56.5 594.8 57.15 593.3 57.8 591.42 58.13 589.15 58.13 586.42 58.13 584.13 57.3 582.3 55.64 580.47 53.98 579.54 51.75 579.54 48.94 579.54 45.93 580.72 43.51 583.08 41.69 585.44 39.87 589.14 38.65 594.18 38.03L598.61 37.49C598.61 35.44 598.13 33.99 597.16 33.12 596.19 32.25 594.75 31.81 592.82 31.79 590.73 31.79 588.75 32.11 586.88 32.74 585.01 33.37 583.58 34.12 582.57 34.98L582.57 28.32C583.57 27.78 585.13 27.23 587.24 26.68 589.35 26.13 591.57 25.85 593.9 25.85 597.76 25.85 600.68 26.92 602.68 29.04 604.68 31.17 605.68 34.22 605.68 38.2ZM595.36 42.81C592.15 43.19 589.88 43.81 588.57 44.68 587.26 45.55 586.6 46.73 586.6 48.23 586.6 49.52 586.99 50.54 587.76 51.3 588.53 52.06 589.7 52.45 591.27 52.45 593.54 52.45 595.34 51.75 596.66 50.36 597.99 48.96 598.66 47.21 598.68 45.1L598.68 42.42 595.37 42.81Z" fill="#737373"/><path d="M625.49 52.3C625.91 52.3 626.42 52.2 627.01 52 627.6 51.8 628.12 51.56 628.56 51.28L628.56 57.3C628.1 57.56 627.33 57.8 626.26 58.02 625.19 58.24 624.13 58.35 623.08 58.35 620.01 58.35 617.7 57.53 616.17 55.89 614.64 54.25 613.87 51.79 613.87 48.49L613.87 32.58 608.78 32.58 608.78 26.62 613.87 26.62 613.87 19.66 621.19 17.43 621.19 26.62 628.57 26.62 628.57 32.58 621.19 32.58 621.19 47.07C621.19 48.98 621.54 50.32 622.23 51.11 622.92 51.89 624.01 52.28 625.5 52.28Z" fill="#737373"/><path d="M647.36 11.21C648.24 11.21 649.03 11.25 649.71 11.35 650.39 11.44 651 11.58 651.52 11.76L651.52 18.06C651.28 17.92 650.86 17.75 650.26 17.55 649.66 17.35 648.96 17.25 648.18 17.25 646.65 17.25 645.48 17.73 644.66 18.68 643.84 19.63 643.42 21.05 643.42 22.91L643.42 26.65 650.32 26.65 650.32 32.61 643.42 32.61 643.42 57.61 636.04 57.61 636.04 32.61 630.86 32.61 630.86 26.65 636.04 26.65 636.04 22.34C636.04 19.09 637.1 16.42 639.22 14.34 641.34 12.26 644.06 11.22 647.37 11.22Z" fill="#737373"/><path d="M650.66 42.57C650.66 37.45 652.11 33.39 655 30.4 657.89 27.41 661.91 25.91 667.05 25.91 671.89 25.91 675.67 27.35 678.39 30.23 681.11 33.11 682.47 37 682.47 41.9 682.47 46.8 681.02 50.92 678.13 53.89 675.24 56.86 671.3 58.35 666.32 58.35 661.34 58.35 657.71 56.94 654.89 54.12 652.07 51.3 650.66 47.45 650.66 42.57ZM658.25 42.33C658.25 45.56 658.98 48.03 660.45 49.74 661.92 51.45 664.01 52.3 666.75 52.3 669.49 52.3 671.42 51.45 672.8 49.74 674.19 48.03 674.88 45.5 674.88 42.15 674.88 38.8 674.16 36.3 672.73 34.6 671.29 32.9 669.28 32.05 666.69 32.05 664.1 32.05 661.94 32.94 660.47 34.72 658.99 36.5 658.26 39.03 658.26 42.33Z" fill="#737373"/><path d="M702.8 26.12C703.38 26.12 703.9 26.16 704.37 26.24 704.83 26.32 705.22 26.42 705.54 26.54L705.54 33.92C705.16 33.64 704.6 33.37 703.87 33.12 703.14 32.87 702.25 32.74 701.2 32.74 699.41 32.74 697.9 33.49 696.67 35 695.43 36.51 694.82 38.83 694.82 41.96L694.82 57.6 687.53 57.6 687.53 26.63 694.82 26.63 694.82 31.51 694.94 31.51C695.6 29.82 696.61 28.5 697.95 27.55 699.29 26.6 700.91 26.12 702.8 26.12Z" fill="#737373"/><path d="M754.66 38.5 754.66 57.6 747.34 57.6 747.34 40.16C747.34 37.29 746.88 35.2 745.97 33.88 745.06 32.57 743.66 31.91 741.77 31.91 739.72 31.91 738.09 32.65 736.87 34.14 735.65 35.63 735.05 37.53 735.05 39.86L735.05 57.6 727.76 57.6 727.76 39.61C727.76 37.04 727.27 35.11 726.28 33.83 725.3 32.54 723.82 31.9 721.85 31.9 719.88 31.9 718.43 32.61 717.27 34.02 716.1 35.44 715.52 37.39 715.52 39.88L715.52 57.59 708.23 57.59 708.23 26.63 715.52 26.63 715.52 30.79 715.64 30.79C716.66 29.14 718.02 27.93 719.71 27.16 721.4 26.39 723.31 26 725.43 26 727.55 26 729.34 26.44 730.88 27.31 732.43 28.18 733.54 29.41 734.22 31 735.18 29.55 736.49 28.36 738.14 27.42 739.79 26.48 741.94 26 744.59 26 747.86 26 750.36 27 752.08 29 753.8 31 754.66 34.17 754.66 38.5Z" fill="#737373"/></g><path d="M140.35 14.4 140.35 57.6 132.85 57.6 132.85 23.74 132.73 23.74 119.32 57.6 114.35 57.6 100.61 23.74 100.52 23.74 100.52 57.6 93.59 57.6 93.59 14.4 104.34 14.4 116.75 46.42 116.93 46.42 130.03 14.4 140.33 14.4ZM146.62 17.68C146.62 16.47 147.06 15.47 147.93 14.65 148.8 13.83 149.84 13.43 151.05 13.43 152.34 13.43 153.4 13.85 154.24 14.68 155.08 15.51 155.51 16.51 155.51 17.68 155.51 18.85 155.08 19.86 154.21 20.66 153.35 21.46 152.29 21.87 151.05 21.87 149.81 21.87 148.76 21.46 147.9 20.65 147.05 19.84 146.62 18.85 146.62 17.68ZM154.66 26.63 154.66 57.6 147.37 57.6 147.37 26.63 154.66 26.63ZM176.77 52.3C177.85 52.3 179.05 52.05 180.35 51.55 181.66 51.05 182.86 50.39 183.97 49.56L183.97 56.34C182.81 57 181.48 57.51 180.01 57.85 178.53 58.19 176.91 58.36 175.14 58.36 170.58 58.36 166.88 56.92 164.02 54.04 161.17 51.16 159.74 47.48 159.74 43 159.74 38.02 161.2 33.92 164.11 30.69 167.02 27.47 171.15 25.86 176.49 25.86 177.86 25.86 179.24 26.04 180.63 26.39 182.03 26.74 183.13 27.15 183.96 27.61L183.96 34.6C182.83 33.78 181.69 33.14 180.51 32.69 179.34 32.24 178.13 32.01 176.91 32.01 174.04 32.01 171.72 32.94 169.95 34.81 168.18 36.68 167.3 39.2 167.3 42.37 167.3 45.54 168.15 47.94 169.85 49.69 171.55 51.44 173.85 52.31 176.76 52.31ZM204.73 26.12C205.31 26.12 205.83 26.16 206.3 26.24 206.77 26.32 207.15 26.42 207.48 26.54L207.48 33.92C207.1 33.64 206.54 33.37 205.81 33.12 205.08 32.87 204.19 32.74 203.14 32.74 201.35 32.74 199.84 33.49 198.61 35 197.38 36.51 196.76 38.83 196.76 41.96L196.76 57.6 189.47 57.6 189.47 26.63 196.76 26.63 196.76 31.51 196.88 31.51C197.54 29.82 198.55 28.5 199.89 27.55 201.24 26.6 202.85 26.12 204.74 26.12ZM207.87 42.57C207.87 37.45 209.32 33.39 212.21 30.4 215.1 27.41 219.12 25.91 224.26 25.91 229.1 25.91 232.88 27.35 235.6 30.23 238.32 33.11 239.68 37 239.68 41.9 239.68 46.8 238.23 50.92 235.34 53.89 232.45 56.86 228.51 58.35 223.53 58.35 218.55 58.35 214.92 56.94 212.1 54.12 209.28 51.3 207.87 47.45 207.87 42.57ZM215.46 42.33C215.46 45.56 216.19 48.03 217.66 49.74 219.13 51.45 221.22 52.3 223.96 52.3 226.7 52.3 228.63 51.45 230.02 49.74 231.41 48.03 232.1 45.5 232.1 42.15 232.1 38.8 231.38 36.3 229.95 34.6 228.51 32.9 226.5 32.05 223.91 32.05 221.32 32.05 219.17 32.94 217.69 34.72 216.21 36.5 215.48 39.03 215.48 42.33ZM250.53 34.77C250.53 35.81 250.86 36.63 251.52 37.23 252.18 37.82 253.65 38.57 255.92 39.47 258.83 40.64 260.88 41.95 262.05 43.4 263.23 44.86 263.81 46.62 263.81 48.69 263.81 51.6 262.69 53.94 260.45 55.71 258.21 57.48 255.18 58.36 251.37 58.36 250.08 58.36 248.66 58.2 247.11 57.89 245.55 57.58 244.23 57.18 243.15 56.7L243.15 49.53C244.48 50.45 245.9 51.19 247.43 51.73 248.96 52.27 250.34 52.54 251.59 52.54 253.24 52.54 254.45 52.31 255.24 51.85 256.03 51.39 256.41 50.61 256.41 49.53 256.41 48.53 256 47.68 255.19 46.98 254.38 46.28 252.83 45.49 250.57 44.58 247.88 43.46 245.97 42.19 244.85 40.78 243.72 39.37 243.16 37.59 243.16 35.42 243.16 32.63 244.27 30.33 246.49 28.54 248.71 26.74 251.59 25.84 255.12 25.84 256.2 25.84 257.42 25.96 258.76 26.2 260.11 26.44 261.23 26.75 262.13 27.13L262.13 34.06C261.17 33.42 260.04 32.87 258.76 32.4 257.47 31.94 256.2 31.71 254.93 31.71 253.54 31.71 252.46 31.98 251.69 32.52 250.92 33.06 250.53 33.81 250.53 34.75ZM266.95 42.57C266.95 37.45 268.4 33.39 271.29 30.4 274.18 27.41 278.2 25.91 283.34 25.91 288.18 25.91 291.96 27.35 294.68 30.23 297.4 33.11 298.76 37 298.76 41.9 298.76 46.8 297.31 50.92 294.42 53.89 291.53 56.86 287.59 58.35 282.61 58.35 277.63 58.35 274 56.94 271.18 54.12 268.36 51.3 266.95 47.45 266.95 42.57ZM274.54 42.33C274.54 45.56 275.27 48.03 276.74 49.74 278.21 51.45 280.3 52.3 283.04 52.3 285.78 52.3 287.71 51.45 289.1 49.74 290.49 48.03 291.18 45.5 291.18 42.15 291.18 38.8 290.46 36.3 289.03 34.6 287.59 32.9 285.58 32.05 282.99 32.05 280.4 32.05 278.25 32.94 276.77 34.72 275.29 36.5 274.56 39.03 274.56 42.33ZM322.95 32.6 312.09 32.6 312.09 57.6 304.71 57.6 304.71 32.6 299.53 32.6 299.53 26.64 304.71 26.64 304.71 22.33C304.71 19.08 305.77 16.41 307.89 14.33 310.01 12.25 312.72 11.21 316.04 11.21 316.92 11.21 317.71 11.26 318.39 11.35 319.07 11.44 319.68 11.58 320.2 11.76L320.2 18.06C319.96 17.92 319.54 17.75 318.93 17.55 318.33 17.35 317.63 17.25 316.85 17.25 315.32 17.25 314.15 17.73 313.32 18.68 312.5 19.63 312.09 21.04 312.09 22.91L312.09 26.65 322.95 26.65 322.95 19.69 330.27 17.46 330.27 26.65 337.65 26.65 337.65 32.61 330.27 32.61 330.27 47.1C330.27 49.01 330.62 50.35 331.31 51.14 332 51.92 333.09 52.32 334.58 52.32 335 52.32 335.51 52.22 336.1 52.02 336.69 51.82 337.21 51.58 337.65 51.3L337.65 57.33C337.19 57.59 336.42 57.83 335.35 58.05 334.28 58.27 333.22 58.38 332.17 58.38 329.1 58.38 326.79 57.56 325.26 55.93 323.72 54.29 322.96 51.83 322.96 48.53L322.96 32.62Z" fill="#737373"/></g></g><g id="MS-symbol"><g><rect x="0" y="0" width="34.22" height="34.22" fill="#F25022"/><rect x="37.78" y="0" width="34.22" height="34.22" fill="#7FBA00"/><rect x="0" y="37.78" width="34.22" height="34.22" fill="#00A4EF"/><rect x="37.78" y="37.78" width="34.22" height="34.22" fill="#FFB900"/></g></g></svg>